<svg width="111.25000745794225" height="182.63800659179685" viewBox="0 0 251.37339401131138 412.6771461997116"><defs id="SvgjsDefs1269"></defs><g id="SvgjsG1270" featurekey="dZL0lc-0" transform="matrix(3.4883745687614756,0,0,3.4883745687614756,-48.62758379387705,-24.41862198133033)" fill="#ffb26b"><g xmlns="http://www.w3.org/2000/svg" transform="translate(0,-952.36218)"><path d="m 54.979821,960.36225 0,8.4969 c -0.56353,-0.5829 -1.14636,-0.3966 -1.71875,-0.2187 -3.14001,3.1389 -6.09934,7.9638 -9.65625,9.7776 -4.72892,2.1699 -10.08693,4.0325 -13.90625,6.2471 -1.32113,0.8189 -2.21976,1.4438 -2.7187,2.6247 -0.0931,2.056 -0.12418,4.0588 1.03125,5.4667 -0.0105,1.4998 -0.0203,3.045 -0.0312,4.5609 -0.007,0.5228 0.46149,1.0054 0.98452,1.0135 0.52303,0.01 1.00647,-0.4597 1.01548,-0.9825 l 0.0312,-3.6549 c 0.86024,0.2183 1.88782,0.3915 2.96875,0.5623 -2.5e-4,1.3558 0,2.7304 0,4.0926 -0.007,0.5281 0.47163,1.0138 1,1.0138 0.52837,0 1.00747,-0.4857 1,-1.0138 l 0,-3.8112 c 1.29401,0.1388 2.63792,0.2145 4,0.2186 0.0825,1.6841 -0.0252,3.5263 -0.0647,5.1544 -7.79883,3.95945 -12.93528,12.02865 -12.93528,21.36715 0,13.2382 10.757,24.0848 24,24.0848 13.243,0 24,-10.8466 24,-24.0848 0,-13.2382 -10.757,-23.95995 -24,-23.95995 -1.01828,0 -2.015,0.064 -3,0.1873 l 0,-3.9048 c 1.84448,-0.6432 3.39242,-1.5169 4.75,-2.2803 2.00345,-1.1267 3.58333,-1.9681 5.25,-1.9681 0.61905,0.016 1.42679,0.1275 2,0.1877 l 0,2.8114 c -0.007,0.5281 0.47163,1.0138 1,1.0138 0.52837,0 1.00747,-0.4857 1,-1.0138 l 0,-2.624 c 1.33843,0.1129 2.66765,0.2051 4,0.2187 l 0,2.4053 c -0.007,0.5281 0.47163,1.0138 1,1.0138 0.52837,0 1.00747,-0.4857 1,-1.0138 l 0,-2.4365 c 1.32207,-0.052 2.66265,-0.1932 4,-0.4062 l 0,2.8427 c -0.007,0.5281 0.47163,1.0138 1,1.0138 0.52837,0 1.00747,-0.4857 1,-1.0138 l 0,-3.7798 c 0.59427,-1.3498 0.75431,-3.2639 0.875,-5.4355 0.40919,-4.9816 0.1659,-9.964 -1.96875,-14.2448 -0.66648,-0.6878 -1.28033,-0.5824 -1.90625,0.062 l 0,-8.5906 c -5e-5,-0.5234 -0.47641,-0.9995 -1,-0.9996 l -13,0 c -0.6186,-0.01 -0.9981,0.395 -1.00007,0.9999 z m -0.875,10.4024 c 2.90165,2.5253 6.26811,6.4961 9.875,6.5914 3.76145,-0.087 5.17234,-3.1486 6.78125,-6.0291 1.66118,3.8277 1.304,7.7811 1.09375,11.7145 -0.1109,1.9955 -0.42929,3.5654 -0.71875,4.3734 -4.6065,0.8115 -9.15133,0.5468 -14.03125,-0.062 -2.40636,0.1062 -4.62975,1.2677 -6.375,2.2492 -1.99655,1.1226 -4.09287,2.2802 -6.90625,2.7489 -4.66366,0.391 -9.69644,0.4182 -14.18745,-0.9059 -0.47876,-0.6178 -0.70749,-1.9608 -0.65625,-3.7485 0.0864,-0.095 0.67777,-0.6933 1.71875,-1.3122 3.6888,-2.051 7.67093,-3.6989 11.40625,-5.2167 l 2.0625,2.7802 1.625,-1.2184 -1.75,-2.3429 c 0.75962,-0.2812 1.4743,-0.8012 2.0625,-1.1867 l 2.0625,2.749 1.625,-1.2183 -2.09375,-2.8116 c 0.54402,-0.4877 1.0602,-0.9965 1.5625,-1.5306 l 1.90625,2.5616 1.625,-1.2184 -2.15625,-2.8739 c 1.21405,-1.38 2.36594,-2.8838 3.4687,-4.093 z m -9.125,23.3664 0,3.6862 c -1.38457,0.293 -2.71474,0.7288 -4,1.2496 l 0,-4.3734 c 1.41289,-0.1258 2.84648,-0.2938 4,-0.5624 z m 11.84375,6.31025 c 4.41728,1.4286 8.18154,4.2255 10.875,7.8721 0.0824,-0.029 -1.72873,5.2415 -2.71875,8.0283 2,1.9993 4.21635,3.5763 6.5,5.4979 0.19494,-0.072 0.35237,-0.119 0.5,-0.1874 -0.0574,3.4975 -0.93135,6.7976 -2.4375,9.7152 -3.59623,0.4471 -7.32323,1.1682 -10.5625,1.9681 -0.69186,3.459 -1.31448,5.7794 -1.96875,8.8092 -2.20686,0.7421 -4.57327,1.1559 -7.03125,1.1559 -2.52902,0 -4.95749,-0.4347 -7.21875,-1.2183 -0.52729,-2.2598 -1.97069,-6.5064 -2.78125,-9.7465 -3.53563,-0.7066 -6.87038,-1.329 -10,-1.9993 -1.10811,-2.4214 -1.88638,-6 -1.9687,-8.4655 0.2172,0.1501 0.52121,0.3042 0.96875,0.4687 2.28365,-1.9216 5.19647,-3.333 7,-5.9978 -1.00049,-2.7672 -2.06325,-5.7377 -3.5625,-8.2782 2.22668,-2.931 5.18283,-5.2652 8.59375,-6.7789 2.35423,1.7202 5.35269,3.1676 7.9688,4.0606 2.69788,-1.8179 5.58439,-3.4573 7.84365,-4.9041 z m -11.84375,14.9007 -3,5.9978 3,6.9974 9,0 3,-6.9974 -3,-5.9978 z" style="text-indent:0;text-transform:none;direction:ltr;block-progression:tb;baseline-shift:baseline;color:;enable-background:accumulate;" fill="#ffb26b" fill-opacity="1" stroke="none" marker="none" visibility="visible" display="inline" overflow="visible"></path></g></g></svg>