<svg width="111.25000745794225" height="182.63800659179685" viewBox="0 0 251.37339401131138 412.6771461997116"><defs id="SvgjsDefs1269"></defs><g id="SvgjsG1270" featurekey="dZL0lc-0" transform="matrix(3.4883745687614756,0,0,3.4883745687614756,-48.62758379387705,-24.41862198133033)" fill="#ffb26b"><g xmlns="http://www.w3.org/2000/svg" transform="translate(0,-952.36218)"><path d="m 54.979821,960.36225 0,8.4969 c -0.56353,-0.5829 -1.14636,-0.3966 -1.71875,-0.2187 -3.14001,3.1389 -6.09934,7.9638 -9.65625,9.7776 -4.72892,2.1699 -10.08693,4.0325 -13.90625,6.2471 -1.32113,0.8189 -2.21976,1.4438 -2.7187,2.6247 -0.0931,2.056 -0.12418,4.0588 1.03125,5.4667 -0.0105,1.4998 -0.0203,3.045 -0.0312,4.5609 -0.007,0.5228 0.46149,1.0054 0.98452,1.0135 0.52303,0.01 1.00647,-0.4597 1.01548,-0.9825 l 0.0312,-3.6549 c 0.86024,0.2183 1.88782,0.3915 2.96875,0.5623 -2.5e-4,1.3558 0,2.7304 0,4.0926 -0.007,0.5281 0.47163,1.0138 1,1.0138 0.52837,0 1.00747,-0.4857 1,-1.0138 l 0,-3.8112 c 1.29401,0.1388 2.63792,0.2145 4,0.2186 0.0825,1.6841 -0.0252,3.5263 -0.0647,5.1544 -7.79883,3.95945 -12.93528,12.02865 -12.93528,21.36715 0,13.2382 10.757,24.0848 24,24.0848 13.243,0 24,-10.8466 24,-24.0848 0,-13.2382 -10.757,-23.95995 -24,-23.95995 -1.01828,0 -2.015,0.064 -3,0.1873 l 0,-3.9048 c 1.84448,-0.6432 3.39242,-1.5169 4.75,-2.2803 2.00345,-1.1267 3.58333,-1.9681 5.25,-1.9681 0.61905,0.016 1.42679,0.1275 2,0.1877 l 0,2.8114 c -0.007,0.5281 0.47163,1.0138 1,1.0138 0.52837,0 1.00747,-0.4857 1,-1.0138 l 0,-2.624 c 1.33843,0.1129 2.66765,0.2051 4,0.2187 l 0,2.4053 c -0.007,0.5281 0.47163,1.0138 1,1.0138 0.52837,0 1.00747,-0.4857 1,-1.0138 l 0,-2.4365 c 1.32207,-0.052 2.66265,-0.1932 4,-0.4062 l 0,2.8427 c -0.007,0.5281 0.47163,1.0138 1,1.0138 0.52837,0 1.00747,-0.4857 1,-1.0138 l 0,-3.7798 c 0.59427,-1.3498 0.75431,-3.2639 0.875,-5.4355 0.40919,-4.9816 0.1659,-9.964 -1.96875,-14.2448 -0.66648,-0.6878 -1.28033,-0.5824 -1.90625,0.062 l 0,-8.5906 c -5e-5,-0.5234 -0.47641,-0.9995 -1,-0.9996 l -13,0 c -0.6186,-0.01 -0.9981,0.395 -1.00007,0.9999 z m -0.875,10.4024 c 2.90165,2.5253 6.26811,6.4961 9.875,6.5914 3.76145,-0.087 5.17234,-3.1486 6.78125,-6.0291 1.66118,3.8277 1.304,7.7811 1.09375,11.7145 -0.1109,1.9955 -0.42929,3.5654 -0.71875,4.3734 -4.6065,0.8115 -9.15133,0.5468 -14.03125,-0.062 -2.40636,0.1062 -4.62975,1.2677 -6.375,2.2492 -1.99655,1.1226 -4.09287,2.2802 -6.90625,2.7489 -4.66366,0.391 -9.69644,0.4182 -14.18745,-0.9059 -0.47876,-0.6178 -0.70749,-1.9608 -0.65625,-3.7485 0.0864,-0.095 0.67777,-0.6933 1.71875,-1.3122 3.6888,-2.051 7.67093,-3.6989 11.40625,-5.2167 l 2.0625,2.7802 1.625,-1.2184 -1.75,-2.3429 c 0.75962,-0.2812 1.4743,-0.8012 2.0625,-1.1867 l 2.0625,2.749 1.625,-1.2183 -2.09375,-2.8116 c 0.54402,-0.4877 1.0602,-0.9965 1.5625,-1.5306 l 1.90625,2.5616 1.625,-1.2184 -2.15625,-2.8739 c 1.21405,-1.38 2.36594,-2.8838 3.4687,-4.093 z m -9.125,23.3664 0,3.6862 c -1.38457,0.293 -2.71474,0.7288 -4,1.2496 l 0,-4.3734 c 1.41289,-0.1258 2.84648,-0.2938 4,-0.5624 z m 11.84375,6.31025 c 4.41728,1.4286 8.18154,4.2255 10.875,7.8721 0.0824,-0.029 -1.72873,5.2415 -2.71875,8.0283 2,1.9993 4.21635,3.5763 6.5,5.4979 0.19494,-0.072 0.35237,-0.119 0.5,-0.1874 -0.0574,3.4975 -0.93135,6.7976 -2.4375,9.7152 -3.59623,0.4471 -7.32323,1.1682 -10.5625,1.9681 -0.69186,3.459 -1.31448,5.7794 -1.96875,8.8092 -2.20686,0.7421 -4.57327,1.1559 -7.03125,1.1559 -2.52902,0 -4.95749,-0.4347 -7.21875,-1.2183 -0.52729,-2.2598 -1.97069,-6.5064 -2.78125,-9.7465 -3.53563,-0.7066 -6.87038,-1.329 -10,-1.9993 -1.10811,-2.4214 -1.88638,-6 -1.9687,-8.4655 0.2172,0.1501 0.52121,0.3042 0.96875,0.4687 2.28365,-1.9216 5.19647,-3.333 7,-5.9978 -1.00049,-2.7672 -2.06325,-5.7377 -3.5625,-8.2782 2.22668,-2.931 5.18283,-5.2652 8.59375,-6.7789 2.35423,1.7202 5.35269,3.1676 7.9688,4.0606 2.69788,-1.8179 5.58439,-3.4573 7.84365,-4.9041 z m -11.84375,14.9007 -3,5.9978 3,6.9974 9,0 3,-6.9974 -3,-5.9978 z" style="text-indent:0;text-transform:none;direction:ltr;block-progression:tb;baseline-shift:baseline;color:;enable-background:accumulate;" fill="#ffb26b" fill-opacity="1" stroke="none" marker="none" visibility="visible" display="inline" overflow="visible"></path></g></g><g id="SvgjsG1271" featurekey="u029BI-0" transform="matrix(3.6034021119561532,0,0,3.6034021119561532,-5.765440458128606,298.4516570200088)" fill="#ffffff"><path d="M4.72 17.46 q0.22 0.02 0.51 0.03 t0.69 0.01 q2.34 0 3.47 -1.18 t1.13 -3.26 q0 -2.18 -1.08 -3.3 t-3.42 -1.12 q-0.32 0 -0.66 0.01 t-0.64 0.05 l0 8.76 z M13.74 13.059999999999999 q0 1.8 -0.56 3.14 t-1.59 2.22 t-2.51 1.32 t-3.32 0.44 q-0.84 0 -1.96 -0.07 t-2.2 -0.29 l0 -13.5 q1.08 -0.2 2.25 -0.27 t2.01 -0.07 q1.78 0 3.23 0.4 t2.49 1.26 t1.6 2.2 t0.56 3.22 z M20.4 5.98 q3.12 0 4.78 1.11 t1.66 3.45 q0 1.46 -0.67 2.37 t-1.93 1.43 q0.42 0.52 0.88 1.19 t0.91 1.4 t0.87 1.52 t0.78 1.55 l-3.5 0 q-0.38 -0.68 -0.77 -1.38 t-0.8 -1.36 t-0.81 -1.25 t-0.8 -1.07 l-1.54 0 l0 5.06 l-3.12 0 l0 -13.66 q1.02 -0.2 2.11 -0.28 t1.95 -0.08 z M20.58 8.64 q-0.34 0 -0.61 0.02 t-0.51 0.04 l0 3.76 l0.88 0 q1.76 0 2.52 -0.44 t0.76 -1.5 q0 -1.02 -0.77 -1.45 t-2.27 -0.43 z M29.68 20 l0 -13.86 l9.36 0 l0 2.62 l-6.24 0 l0 2.72 l5.54 0 l0 2.56 l-5.54 0 l0 3.34 l6.7 0 l0 2.62 l-9.82 0 z M51.080000000000005 20 q-0.22 -0.72 -0.49 -1.48 t-0.53 -1.52 l-5.4 0 q-0.26 0.76 -0.53 1.52 t-0.49 1.48 l-3.24 0 q0.78 -2.24 1.48 -4.14 t1.37 -3.58 t1.32 -3.19 t1.35 -2.95 l2.98 0 q0.68 1.44 1.34 2.95 t1.33 3.19 t1.37 3.58 t1.48 4.14 l-3.34 0 z M47.34 9.28 q-0.1 0.3 -0.3 0.82 t-0.46 1.2 t-0.57 1.5 t-0.63 1.72 l3.94 0 q-0.32 -0.9 -0.62 -1.72 t-0.57 -1.5 t-0.47 -1.2 t-0.32 -0.82 z M59.900000000000006 6.140000000000001 q0.36 0.66 0.83 1.63 t0.98 2.1 t1.01 2.31 t0.94 2.22 q0.44 -1.04 0.94 -2.22 t1.01 -2.31 t0.98 -2.1 t0.83 -1.63 l2.84 0 q0.2 1.38 0.37 3.09 t0.3 3.56 t0.24 3.71 t0.19 3.5 l-3.04 0 q-0.06 -2.02 -0.16 -4.4 t-0.3 -4.8 q-0.36 0.84 -0.8 1.86 t-0.87 2.04 t-0.83 1.95 t-0.68 1.59 l-2.18 0 q-0.28 -0.66 -0.68 -1.59 t-0.83 -1.95 t-0.87 -2.04 t-0.8 -1.86 q-0.2 2.42 -0.3 4.8 t-0.16 4.4 l-3.04 0 q0.08 -1.64 0.19 -3.5 t0.24 -3.71 t0.3 -3.56 t0.37 -3.09 l2.98 0 z"></path></g><g id="SvgjsG1272" featurekey="u029BI-1" transform="matrix(2.1790342638811926,0,0,2.1790342638811926,-2.6148438181731466,368.31801605397743)" fill="#ffffff"><path d="M5.28 6.140000000000001 q0.36 0.66 0.83 1.63 t0.98 2.1 t1.01 2.31 t0.94 2.22 q0.44 -1.04 0.94 -2.22 t1.01 -2.31 t0.98 -2.1 t0.83 -1.63 l2.84 0 q0.2 1.38 0.37 3.09 t0.3 3.56 t0.24 3.71 t0.19 3.5 l-3.04 0 q-0.06 -2.02 -0.16 -4.4 t-0.3 -4.8 q-0.36 0.84 -0.8 1.86 t-0.87 2.04 t-0.83 1.95 t-0.68 1.59 l-2.18 0 q-0.28 -0.66 -0.68 -1.59 t-0.83 -1.95 t-0.87 -2.04 t-0.8 -1.86 q-0.2 2.42 -0.3 4.8 t-0.16 4.4 l-3.04 0 q0.08 -1.64 0.19 -3.5 t0.24 -3.71 t0.3 -3.56 t0.37 -3.09 l2.98 0 z M28.82 20 q-0.22 -0.72 -0.49 -1.48 t-0.53 -1.52 l-5.4 0 q-0.26 0.76 -0.53 1.52 t-0.49 1.48 l-3.24 0 q0.78 -2.24 1.48 -4.14 t1.37 -3.58 t1.32 -3.19 t1.35 -2.95 l2.98 0 q0.68 1.44 1.34 2.95 t1.33 3.19 t1.37 3.58 t1.48 4.14 l-3.34 0 z M25.080000000000002 9.28 q-0.1 0.3 -0.3 0.82 t-0.46 1.2 t-0.57 1.5 t-0.63 1.72 l3.94 0 q-0.32 -0.9 -0.62 -1.72 t-0.57 -1.5 t-0.47 -1.2 t-0.32 -0.82 z M44.24 6.140000000000001 l0 2.66 l-4.18 0 l0 11.2 l-3.12 0 l0 -11.2 l-4.18 0 l0 -2.66 l11.48 0 z M52.56 20.28 q-3.38 0 -5.15 -1.88 t-1.77 -5.34 q0 -1.72 0.54 -3.07 t1.48 -2.28 t2.24 -1.41 t2.82 -0.48 q0.88 0 1.6 0.13 t1.26 0.3 t0.9 0.35 t0.52 0.28 l-0.9 2.52 q-0.64 -0.34 -1.49 -0.58 t-1.93 -0.24 q-0.72 0 -1.41 0.24 t-1.22 0.77 t-0.85 1.37 t-0.32 2.04 q0 0.96 0.21 1.79 t0.68 1.43 t1.23 0.95 t1.84 0.35 q0.68 0 1.22 -0.08 t0.96 -0.19 t0.74 -0.25 t0.58 -0.26 l0.86 2.5 q-0.66 0.4 -1.86 0.72 t-2.78 0.32 z M67.56 6.140000000000001 l3.12 0 l0 13.86 l-3.12 0 l0 -5.88 l-5.24 0 l0 5.88 l-3.12 0 l0 -13.86 l3.12 0 l0 5.3 l5.24 0 l0 -5.3 z M87.96 20 q-0.22 -0.72 -0.49 -1.48 t-0.53 -1.52 l-5.4 0 q-0.26 0.76 -0.53 1.52 t-0.49 1.48 l-3.24 0 q0.78 -2.24 1.48 -4.14 t1.37 -3.58 t1.32 -3.19 t1.35 -2.95 l2.98 0 q0.68 1.44 1.34 2.95 t1.33 3.19 t1.37 3.58 t1.48 4.14 l-3.34 0 z M84.22 9.28 q-0.1 0.3 -0.3 0.82 t-0.46 1.2 t-0.57 1.5 t-0.63 1.72 l3.94 0 q-0.32 -0.9 -0.62 -1.72 t-0.57 -1.5 t-0.47 -1.2 t-0.32 -0.82 z M97.26 5.98 q3.1 0 4.76 1.09 t1.66 3.57 q0 2.5 -1.68 3.61 t-4.8 1.11 l-0.98 0 l0 4.64 l-3.12 0 l0 -13.66 q1.02 -0.2 2.16 -0.28 t2 -0.08 z M97.46 8.64 q-0.34 0 -0.67 0.02 t-0.57 0.04 l0 4 l0.98 0 q1.62 0 2.44 -0.44 t0.82 -1.64 q0 -0.58 -0.21 -0.96 t-0.6 -0.61 t-0.95 -0.32 t-1.24 -0.09 z M110.14 5.98 q3.1 0 4.76 1.09 t1.66 3.57 q0 2.5 -1.68 3.61 t-4.8 1.11 l-0.98 0 l0 4.64 l-3.12 0 l0 -13.66 q1.02 -0.2 2.16 -0.28 t2 -0.08 z M110.33999999999999 8.64 q-0.34 0 -0.67 0.02 t-0.57 0.04 l0 4 l0.98 0 q1.62 0 2.44 -0.44 t0.82 -1.64 q0 -0.58 -0.21 -0.96 t-0.6 -0.61 t-0.95 -0.32 t-1.24 -0.09 z"></path></g></svg>